HIERARCHY
ROOT newVegas:Hips
{
	OFFSET 0.000000 96.479958 0.000000
	CHANNELS 6 Xposition Yposition Zposition Xrotation Yrotation Zrotation
	JOINT newVegas:Pelvis
	{
		OFFSET 0.000000 0.000000 0.000000
		CHANNELS 3 Xrotation Yrotation Zrotation
		JOINT newVegas:LeftUpLeg
		{
			OFFSET 18.735201 -5.666702 -4.541200
			CHANNELS 3 Xrotation Yrotation Zrotation
			JOINT newVegas:LeftLeg
			{
				OFFSET -0.021200 -31.938179 0.493100
				CHANNELS 3 Xrotation Yrotation Zrotation
				JOINT newVegas:LeftFoot
				{
					OFFSET 0.021200 -31.938179 -4.336299
					CHANNELS 3 Xrotation Yrotation Zrotation
					JOINT newVegas:LeftToeBase
					{
						OFFSET 0.943001 -26.722000 15.023500
						CHANNELS 3 Xrotation Yrotation Zrotation
						End Site
						{
							OFFSET 0.000000 30.670183 0.000000
						}
					}
				}
				JOINT newVegas:Left_PantLeg
				{
					OFFSET 0.663870 -9.044666 -1.108900
					CHANNELS 3 Xrotation Yrotation Zrotation
					End Site
					{
						OFFSET 1.415995 20.635357 0.000000
					}
				}
			}
		}
		JOINT newVegas:RightUpLeg
		{
			OFFSET -18.735201 -5.666702 -4.541200
			CHANNELS 3 Xrotation Yrotation Zrotation
			JOINT newVegas:RightLeg
			{
				OFFSET 0.018946 -31.938133 0.493100
				CHANNELS 3 Xrotation Yrotation Zrotation
				JOINT newVegas:RightFoot
				{
					OFFSET -0.018946 -31.938126 -4.336299
					CHANNELS 3 Xrotation Yrotation Zrotation
					JOINT newVegas:RightToeBase
					{
						OFFSET -0.943001 -26.722004 15.023500
						CHANNELS 3 Xrotation Yrotation Zrotation
						End Site
						{
							OFFSET 0.000000 30.670187 0.000000
						}
					}
				}
				JOINT newVegas:Right_PantLeg
				{
					OFFSET -0.661674 -9.044716 -1.108900
					CHANNELS 3 Xrotation Yrotation Zrotation
					End Site
					{
						OFFSET -1.415958 20.635269 0.000000
					}
				}
			}
		}
	}
	JOINT newVegas:Spine
	{
		OFFSET 0.000000 10.199997 -0.299500
		CHANNELS 3 Xrotation Yrotation Zrotation
		JOINT newVegas:Spine1
		{
			OFFSET 0.000000 11.900002 -1.516600
			CHANNELS 3 Xrotation Yrotation Zrotation
			JOINT newVegas:Spine2
			{
				OFFSET 0.000000 13.600006 -2.842500
				CHANNELS 3 Xrotation Yrotation Zrotation
				JOINT newVegas:Neck
				{
					OFFSET 0.000000 9.624100 -2.890100
					CHANNELS 3 Xrotation Yrotation Zrotation
					JOINT newVegas:Head
					{
						OFFSET 0.000000 14.068802 -1.351900
						CHANNELS 3 Xrotation Yrotation Zrotation
						JOINT newVegas:Hair_Back
						{
							OFFSET 0.000000 3.231903 -17.524799
							CHANNELS 3 Xrotation Yrotation Zrotation
							End Site
							{
								OFFSET 0.000000 19.849884 0.000000
							}
						}
						JOINT newVegas:Hair_Front
						{
							OFFSET 0.000000 31.260406 4.573800
							CHANNELS 3 Xrotation Yrotation Zrotation
							JOINT newVegas:Hair_Front1
							{
								OFFSET 0.000000 2.284103 11.993300
								CHANNELS 3 Xrotation Yrotation Zrotation
								JOINT newVegas:Hair_Front2
								{
									OFFSET 0.000000 2.284103 11.993300
									CHANNELS 3 Xrotation Yrotation Zrotation
									End Site
									{
										OFFSET 0.000000 12.208862 0.000000
									}
								}
							}
						}
						JOINT newVegas:Jowel
						{
							OFFSET 0.000000 -7.458206 6.864100
							CHANNELS 3 Xrotation Yrotation Zrotation
							End Site
							{
								OFFSET 0.000000 19.849884 0.000000
							}
						}
					}
				}
				JOINT newVegas:LeftShoulder
				{
					OFFSET 15.263000 10.923401 -0.547700
					CHANNELS 3 Xrotation Yrotation Zrotation
					JOINT newVegas:LeftArm
					{
						OFFSET 25.438599 -2.830597 -13.032500
						CHANNELS 3 Xrotation Yrotation Zrotation
						JOINT newVegas:LeftForeArm
						{
							OFFSET 29.960503 0.000000 0.000000
							CHANNELS 3 Xrotation Yrotation Zrotation
							JOINT newVegas:LeftHand
							{
								OFFSET 27.849251 0.000000 0.000000
								CHANNELS 3 Xrotation Yrotation Zrotation
								JOINT newVegas:LeftHandThumb1
								{
									OFFSET 4.487587 -3.305161 6.305391
									CHANNELS 3 Xrotation Yrotation Zrotation
									JOINT newVegas:LeftHandThumb2
									{
										OFFSET 5.480453 -3.164139 3.164143
										CHANNELS 3 Xrotation Yrotation Zrotation
										JOINT newVegas:LeftHandThumb3
										{
											OFFSET 5.159721 -2.978973 2.978967
											CHANNELS 3 Xrotation Yrotation Zrotation
											End Site
											{
												OFFSET 2.494507 5.926697 1.738678
											}
										}
									}
								}
								JOINT newVegas:LeftHandIndex1
								{
									OFFSET 18.578728 -0.527832 5.208049
									CHANNELS 3 Xrotation Yrotation Zrotation
									JOINT newVegas:LeftHandIndex2
									{
										OFFSET 3.192009 0.000000 0.000000
										CHANNELS 3 Xrotation Yrotation Zrotation
										JOINT newVegas:LeftHandIndex3
										{
											OFFSET 3.835129 0.000000 0.000000
											CHANNELS 3 Xrotation Yrotation Zrotation
											End Site
											{
												OFFSET -0.034599 3.816971 0.371180
											}
										}
									}
								}
								JOINT newVegas:LeftHandMiddle1
								{
									OFFSET 18.476105 0.000000 0.000000
									CHANNELS 3 Xrotation Yrotation Zrotation
									JOINT newVegas:LeftHandMiddle2
									{
										OFFSET 3.324875 0.000000 0.000000
										CHANNELS 3 Xrotation Yrotation Zrotation
										JOINT newVegas:LeftHandMiddle3
										{
											OFFSET 4.596550 0.000000 0.000000
											CHANNELS 3 Xrotation Yrotation Zrotation
											End Site
											{
												OFFSET 0.057701 4.578827 0.399218
											}
										}
									}
								}
								JOINT newVegas:LeftHandRing1
								{
									OFFSET 17.732719 0.121887 -4.201567
									CHANNELS 3 Xrotation Yrotation Zrotation
									JOINT newVegas:LeftHandRing2
									{
										OFFSET 2.733170 0.000000 0.000000
										CHANNELS 3 Xrotation Yrotation Zrotation
										JOINT newVegas:LeftHandRing3
										{
											OFFSET 3.178268 0.000000 0.000000
											CHANNELS 3 Xrotation Yrotation Zrotation
											End Site
											{
												OFFSET 0.119102 3.170624 0.185394
											}
										}
									}
								}
								JOINT newVegas:LeftHandPinky1
								{
									OFFSET 15.989624 -0.606689 -7.535461
									CHANNELS 3 Xrotation Yrotation Zrotation
									JOINT newVegas:LeftHandPinky2
									{
										OFFSET 2.538986 0.000000 0.000000
										CHANNELS 3 Xrotation Yrotation Zrotation
										JOINT newVegas:LeftHandPinky3
										{
											OFFSET 2.593102 0.000000 0.000000
											CHANNELS 3 Xrotation Yrotation Zrotation
											End Site
											{
												OFFSET -0.150902 2.584198 0.152708
											}
										}
									}
								}
							}
							JOINT newVegas:Left_Sleeve
							{
								OFFSET 0.267448 -0.649796 0.577675
								CHANNELS 3 Xrotation Yrotation Zrotation
								End Site
								{
									OFFSET 0.000000 15.991241 0.000000
								}
							}
							JOINT newVegas:Left_CapeC
							{
								OFFSET 15.715958 -8.608795 -6.935905
								CHANNELS 3 Xrotation Yrotation Zrotation
								JOINT newVegas:Left_CapeC1
								{
									OFFSET 0.000000 -8.688499 0.000000
									CHANNELS 3 Xrotation Yrotation Zrotation
									End Site
									{
										OFFSET 0.000000 8.688499 0.000000
									}
								}
							}
						}
						JOINT newVegas:Left_CapeB
						{
							OFFSET 26.118385 -8.608795 -7.079235
							CHANNELS 3 Xrotation Yrotation Zrotation
							JOINT newVegas:Left_CapeB1
							{
								OFFSET 0.000000 -8.688499 0.000000
								CHANNELS 3 Xrotation Yrotation Zrotation
								End Site
								{
									OFFSET 0.000000 8.688499 0.000000
								}
							}
						}
						JOINT newVegas:Left_CapeA
						{
							OFFSET 5.115639 -8.608795 -10.395809
							CHANNELS 3 Xrotation Yrotation Zrotation
							JOINT newVegas:Left_CapeA1
							{
								OFFSET 0.000000 -8.688499 0.000000
								CHANNELS 3 Xrotation Yrotation Zrotation
								End Site
								{
									OFFSET 0.000000 8.688499 0.000000
								}
							}
						}
					}
				}
				JOINT newVegas:RightShoulder
				{
					OFFSET -15.263000 10.923401 -0.547700
					CHANNELS 3 Xrotation Yrotation Zrotation
					JOINT newVegas:RightArm
					{
						OFFSET -25.438599 -2.830597 -13.032500
						CHANNELS 3 Xrotation Yrotation Zrotation
						JOINT newVegas:RightForeArm
						{
							OFFSET -29.960503 0.000000 0.000000
							CHANNELS 3 Xrotation Yrotation Zrotation
							JOINT newVegas:RightHand
							{
								OFFSET -27.849251 0.000000 0.000000
								CHANNELS 3 Xrotation Yrotation Zrotation
								JOINT newVegas:RightHandThumb1
								{
									OFFSET -4.487587 -3.305161 6.305391
									CHANNELS 3 Xrotation Yrotation Zrotation
									JOINT newVegas:RightHandThumb2
									{
										OFFSET -5.480453 -3.164139 3.164143
										CHANNELS 3 Xrotation Yrotation Zrotation
										JOINT newVegas:RightHandThumb3
										{
											OFFSET -5.159721 -2.978973 2.978967
											CHANNELS 3 Xrotation Yrotation Zrotation
											End Site
											{
												OFFSET -2.494507 5.926697 1.738678
											}
										}
									}
								}
								JOINT newVegas:RightHandIndex1
								{
									OFFSET -18.578728 -0.527832 5.208049
									CHANNELS 3 Xrotation Yrotation Zrotation
									JOINT newVegas:RightHandIndex2
									{
										OFFSET -3.192009 0.000000 0.000000
										CHANNELS 3 Xrotation Yrotation Zrotation
										JOINT newVegas:RightHandIndex3
										{
											OFFSET -3.835129 0.000000 0.000000
											CHANNELS 3 Xrotation Yrotation Zrotation
											End Site
											{
												OFFSET 0.034599 3.816971 0.371180
											}
										}
									}
								}
								JOINT newVegas:RightHandMiddle1
								{
									OFFSET -18.476105 0.000000 0.000000
									CHANNELS 3 Xrotation Yrotation Zrotation
									JOINT newVegas:RightHandMiddle2
									{
										OFFSET -3.324875 0.000000 0.000000
										CHANNELS 3 Xrotation Yrotation Zrotation
										JOINT newVegas:RightHandMiddle3
										{
											OFFSET -4.596550 0.000000 0.000000
											CHANNELS 3 Xrotation Yrotation Zrotation
											End Site
											{
												OFFSET -0.057701 4.578827 0.399218
											}
										}
									}
								}
								JOINT newVegas:RightHandRing1
								{
									OFFSET -17.732719 0.121887 -4.201567
									CHANNELS 3 Xrotation Yrotation Zrotation
									JOINT newVegas:RightHandRing2
									{
										OFFSET -2.733170 0.000000 0.000000
										CHANNELS 3 Xrotation Yrotation Zrotation
										JOINT newVegas:RightHandRing3
										{
											OFFSET -3.178268 0.000000 0.000000
											CHANNELS 3 Xrotation Yrotation Zrotation
											End Site
											{
												OFFSET -0.119102 3.170624 0.185394
											}
										}
									}
								}
								JOINT newVegas:RightHandPinky1
								{
									OFFSET -15.989624 -0.606689 -7.535461
									CHANNELS 3 Xrotation Yrotation Zrotation
									JOINT newVegas:RightHandPinky2
									{
										OFFSET -2.538986 0.000000 0.000000
										CHANNELS 3 Xrotation Yrotation Zrotation
										JOINT newVegas:RightHandPinky3
										{
											OFFSET -2.593102 0.000000 0.000000
											CHANNELS 3 Xrotation Yrotation Zrotation
											End Site
											{
												OFFSET 0.150902 2.584198 0.152708
											}
										}
									}
								}
							}
							JOINT newVegas:Right_CapeC
							{
								OFFSET -15.715958 -8.608795 -6.935905
								CHANNELS 3 Xrotation Yrotation Zrotation
								JOINT newVegas:Right_CapeC1
								{
									OFFSET 0.000000 -8.688499 0.000000
									CHANNELS 3 Xrotation Yrotation Zrotation
									End Site
									{
										OFFSET 0.000000 8.688499 0.000000
									}
								}
							}
							JOINT newVegas:Right_Sleeve
							{
								OFFSET -0.267448 -0.649994 0.577675
								CHANNELS 3 Xrotation Yrotation Zrotation
								End Site
								{
									OFFSET 0.000000 15.991302 0.000000
								}
							}
						}
						JOINT newVegas:Right_CapeA
						{
							OFFSET -5.115540 -8.608795 -10.395824
							CHANNELS 3 Xrotation Yrotation Zrotation
							JOINT newVegas:Right_CapeA1
							{
								OFFSET 0.000000 -8.688499 0.000000
								CHANNELS 3 Xrotation Yrotation Zrotation
								End Site
								{
									OFFSET 0.000000 8.688499 0.000000
								}
							}
						}
						JOINT newVegas:Right_CapeB
						{
							OFFSET -26.118187 -8.608795 -7.079266
							CHANNELS 3 Xrotation Yrotation Zrotation
							JOINT newVegas:Right_CapeB1
							{
								OFFSET 0.000000 -8.688499 0.000000
								CHANNELS 3 Xrotation Yrotation Zrotation
								End Site
								{
									OFFSET 0.000000 8.688499 0.000000
								}
							}
						}
					}
				}
				JOINT newVegas:Left_Collar
				{
					OFFSET 18.625099 8.655502 8.828100
					CHANNELS 3 Xrotation Yrotation Zrotation
					JOINT newVegas:Left_Collar1
					{
						OFFSET 14.783401 10.540405 -1.259500
						CHANNELS 3 Xrotation Yrotation Zrotation
						End Site
						{
							OFFSET 0.000000 18.199875 0.000000
						}
					}
				}
				JOINT newVegas:Collar_Back
				{
					OFFSET 0.000000 15.630707 -20.132601
					CHANNELS 3 Xrotation Yrotation Zrotation
					End Site
					{
						OFFSET 0.000000 22.523010 0.000000
					}
				}
				JOINT newVegas:Left_Peck
				{
					OFFSET 17.239599 -5.132599 25.482599
					CHANNELS 3 Xrotation Yrotation Zrotation
					End Site
					{
						OFFSET 0.000000 22.523010 0.000000
					}
				}
				JOINT newVegas:Right_Peck
				{
					OFFSET -17.239599 -5.132202 25.482599
					CHANNELS 3 Xrotation Yrotation Zrotation
					End Site
					{
						OFFSET 0.000000 22.523010 0.000000
					}
				}
				JOINT newVegas:Right_Collar
				{
					OFFSET -18.625099 8.655792 8.828100
					CHANNELS 3 Xrotation Yrotation Zrotation
					JOINT newVegas:Right_Collar1
					{
						OFFSET -14.783401 10.539993 -1.259500
						CHANNELS 3 Xrotation Yrotation Zrotation
						End Site
						{
							OFFSET 0.000000 18.199631 0.000000
						}
					}
				}
			}
		}
		JOINT newVegas:Belly
		{
			OFFSET 0.000000 -6.540398 9.014299
			CHANNELS 3 Xrotation Yrotation Zrotation
			End Site
			{
				OFFSET 0.000000 11.566666 0.000000
			}
		}
	}
	JOINT newVegas:ElvisFacialAnim_Joint
	{
		OFFSET 1.000000 -95.330101 -8.825800
		CHANNELS 3 Xrotation Yrotation Zrotation
		End Site
		{
			OFFSET 0.000000 35.315800 0.000000
		}
	}
}
MOTION
Frames: 4
Frame Time: 0.016667
8.042481 88.574425 -10.637535 12.686755 9.108342 -1.493919 -0.000000 0.000000 -0.000000 -17.267671 13.241987 12.261434 38.596644 -1.329313 1.796578 15.111623 -2.801048 -6.377810 0.000003 -0.000001 0.000001 -0.000003 0.000004 0.000001 -50.762956 -5.287802 -7.771741 50.022342 -1.603439 3.439647 -5.902620 2.001406 -0.832110 -0.000001 0.000000 -0.000000 -0.000002 0.000000 -0.000000 4.513430 -1.070907 0.877206 1.564963 -2.658697 2.901393 1.574393 -2.667813 2.901703 -1.283252 0.244964 1.079713 -1.283248 0.244964 1.079711 0.000000 0.000000 0.000000 -1.283254 0.244970 1.079711 -1.283183 0.244956 1.079714 0.000001 0.000000 -0.000001 0.000000 0.000000 0.000000 0.124290 -1.541123 2.568618 -46.523868 -11.866258 -46.983915 0.000000 -112.648158 -0.000003 -69.625726 -13.116158 -10.477711 10.871971 24.431629 7.994428 2.368874 5.209900 -0.238680 0.000005 -0.000004 -0.000001 9.213468 7.430035 -85.046497 5.044727 5.795441 -82.065365 0.000000 0.000006 0.000001 3.117069 7.733724 -77.810676 3.450902 5.337676 -65.744874 0.000001 0.000002 -0.000002 2.981549 8.002539 -85.786179 3.085026 5.157969 -61.746071 -0.000001 0.000003 0.000002 -0.595403 11.406725 -86.448174 6.485177 5.816702 -96.232776 0.000001 -0.000002 0.000000 0.000001 -0.000006 -0.000000 0.000001 -0.000006 -0.000000 0.000000 -0.000006 0.000000 -0.000001 0.000000 0.000001 -0.000001 -0.000001 -0.000001 -0.000001 0.000000 0.000001 -0.000001 -0.000000 0.000000 -1.082566 -10.880359 5.337835 -47.164915 8.617417 48.689564 0.000089 120.211179 -0.000086 -63.342191 15.367429 21.209074 3.592570 -16.454962 -11.549590 2.790449 -6.737060 -0.669445 0.000001 -0.000003 0.000001 -0.566142 0.330606 80.510213 3.774810 -4.572992 79.066755 0.000001 0.000001 -0.000001 -2.294814 -4.464795 67.849617 2.486290 -4.121230 62.190266 -0.000001 -0.000003 -0.000000 -2.842479 -5.033169 74.536673 2.011856 -3.834318 55.359038 0.000003 -0.000001 0.000001 -12.727963 -6.563331 69.830228 4.358500 -4.647591 86.319316 0.000003 0.000002 0.000000 -0.000003 0.000001 0.000001 -0.000003 0.000001 0.000000 -0.000003 0.000001 -0.000001 0.000001 0.000002 -0.000001 0.000001 0.000002 -0.000003 0.000001 0.000002 -0.000001 0.000001 0.000002 -0.000001 0.000000 0.000000 0.000001 0.000000 0.000000 0.000001 0.000000 0.000000 0.000001 0.000000 0.000000 0.000001 0.000000 0.000000 0.000001 0.000000 0.000000 0.000001 0.000000 0.000000 0.000001 -0.000000 -0.000000 -0.000000 -0.000000 0.000000 -0.000000 
7.993722 88.786301 -11.592445 14.005257 9.168697 -1.850238 -0.000000 -0.000000 0.000000 -24.662853 12.544191 12.881586 44.043939 -3.714849 0.164303 21.862180 -2.774297 -1.506746 -0.000002 0.000000 -0.000000 0.000002 -0.000004 0.000001 -51.435310 -5.230723 -6.800571 51.877694 -2.308857 3.194438 -3.671114 2.129353 -1.618773 -0.000000 -0.000000 0.000000 0.000000 0.000000 -0.000000 3.839191 -0.780737 1.350522 3.030184 -2.333151 2.316411 3.025681 -2.337051 2.305679 -1.346412 0.311655 0.782699 -1.346416 0.311655 0.782695 0.000001 -0.000000 -0.000000 -1.346332 0.311655 0.782698 -1.346408 0.311649 0.782698 0.000001 0.000000 0.000000 0.000001 -0.000000 -0.000000 0.226643 -3.126609 5.972565 -55.645507 -11.976972 -43.754496 0.000092 -110.514749 0.000082 -73.310237 -11.632537 -11.828138 10.262789 23.809196 8.306444 2.382977 5.227086 -0.226553 0.000003 -0.000001 -0.000006 8.714095 7.285045 -84.272090 4.989422 5.787499 -81.517133 0.000002 -0.000004 0.000000 2.612482 7.606765 -77.289369 3.418788 5.323145 -65.399143 -0.000002 0.000002 -0.000002 2.429879 7.945367 -85.449341 3.065069 5.147216 -61.523858 0.000001 -0.000001 0.000002 -1.236635 10.924719 -86.368145 6.459686 5.819395 -95.981172 -0.000002 -0.000002 0.000002 0.000003 -0.000003 -0.000001 0.000003 -0.000003 -0.000001 0.000003 -0.000002 0.000000 -0.000002 0.000003 -0.000000 -0.000002 0.000003 0.000000 -0.000002 0.000003 -0.000000 -0.000003 0.000003 -0.000001 -1.787735 -12.486582 1.915336 -57.494115 10.708992 49.479915 -0.000000 115.866509 -0.000006 -69.261178 14.057531 21.653295 4.492009 -16.714725 -11.255545 2.794862 -6.734286 -0.676039 0.000002 0.000001 -0.000000 0.329297 0.086554 80.589443 3.789507 -4.575799 79.251190 0.000002 0.000002 -0.000001 -1.397305 -4.849263 68.072213 2.481658 -4.118802 62.125850 -0.000000 -0.000002 -0.000001 -2.514223 -5.055773 73.935083 1.988888 -3.818367 55.014582 0.000000 -0.000001 0.000000 -12.704625 -6.509700 68.593418 4.285984 -4.642363 85.423837 0.000001 0.000002 -0.000000 0.000001 0.000002 -0.000002 0.000002 0.000001 -0.000003 0.000001 0.000002 -0.000002 0.000002 -0.000001 0.000002 0.000001 0.000000 0.000003 0.000002 -0.000001 0.000002 0.000001 0.000000 0.000003 -0.000001 0.000000 -0.000000 -0.000001 0.000000 -0.000000 -0.000001 0.000000 -0.000000 -0.000001 0.000000 -0.000000 -0.000001 0.000000 -0.000000 -0.000001 0.000000 -0.000000 -0.000001 0.000000 -0.000000 0.000002 0.000000 -0.000000 -0.000000 -0.000000 0.000000 
7.928036 88.733437 -12.438526 14.995868 8.990797 -2.055413 -0.000000 0.000001 -0.000000 -34.106652 10.744609 14.523212 56.659390 -4.604491 -0.568358 21.810932 -2.405867 1.239142 0.000000 0.000000 -0.000001 -0.000001 0.000001 -0.000000 -51.538637 -5.129729 -5.791636 55.088136 -3.304465 2.976325 -3.799341 2.273739 -2.473248 0.000003 -0.000000 0.000000 0.000000 0.000000 -0.000000 3.411434 -0.559392 1.700235 4.511545 -2.087241 1.761739 4.497384 -2.087710 1.743153 -1.425449 0.389529 0.484174 -1.425440 0.389532 0.484175 0.000001 0.000000 -0.000000 -1.425447 0.389529 0.484173 -1.425449 0.389529 0.484175 -0.000000 -0.000000 -0.000000 0.000001 0.000000 -0.000000 0.283896 -4.204906 10.156136 -64.274799 -8.933953 -40.664190 0.000299 -108.101855 0.000280 -77.039493 -10.296179 -13.415703 9.409456 23.501781 8.676160 2.397561 5.244814 -0.214018 0.000001 0.000002 -0.000004 8.148814 7.258570 -83.446941 4.952683 5.781915 -81.152695 0.000001 0.000003 0.000000 2.062243 7.456938 -76.699835 3.403273 5.316031 -65.231612 0.000001 0.000003 0.000002 1.826210 7.873384 -85.043341 3.060738 5.144897 -61.475664 0.000002 -0.000002 0.000002 -1.938271 10.498841 -86.218147 6.449975 5.820414 -95.885447 -0.000000 -0.000000 0.000002 0.000000 -0.000000 0.000002 0.000000 -0.000000 0.000002 0.000000 -0.000001 0.000002 -0.000001 0.000001 0.000001 -0.000001 0.000000 0.000002 -0.000001 0.000001 0.000001 -0.000003 0.000000 -0.000000 -2.697561 -14.467632 -1.739102 -67.851748 8.072157 51.708856 -0.000001 110.708467 -0.000022 -75.665792 13.174106 22.239840 5.568564 -16.817343 -10.745257 2.799338 -6.731145 -0.682852 0.000003 0.000001 -0.000006 1.693627 -0.297643 81.040632 3.833134 -4.583850 79.797435 -0.000000 0.000000 -0.000001 -0.350506 -5.321336 68.847836 2.503177 -4.130069 62.424924 0.000001 -0.000000 -0.000002 -2.233220 -5.138382 73.955123 1.991470 -3.820156 55.053415 0.000002 0.000001 -0.000003 -12.916596 -6.321083 68.072151 4.244218 -4.638838 84.907564 0.000002 0.000005 -0.000001 0.000001 0.000003 -0.000004 0.000001 0.000002 -0.000004 0.000002 0.000004 -0.000003 0.000000 0.000004 0.000003 -0.000000 0.000004 0.000003 0.000000 0.000004 0.000003 -0.000000 0.000004 0.000003 -0.000001 0.000000 -0.000000 -0.000001 0.000000 -0.000000 -0.000001 0.000000 -0.000000 -0.000001 0.000000 -0.000000 -0.000001 0.000000 -0.000000 -0.000001 0.000000 -0.000000 -0.000001 0.000000 -0.000000 -0.000000 -0.000000 0.000000 -0.000000 0.000001 -0.000000 
7.775440 88.479980 -13.152082 15.060174 8.611457 -1.901597 0.000000 0.000000 0.000000 -42.211734 9.179552 15.567842 69.345941 -3.041774 -0.503778 20.380120 -1.865891 4.923716 -0.000000 0.000000 -0.000001 -0.000003 -0.000001 0.000002 -49.892418 -4.854865 -4.872619 57.894657 -4.545160 2.583947 -6.218663 2.388769 -2.736850 -0.000000 0.000000 0.000000 -0.000000 -0.000001 -0.000000 4.252092 -0.474013 1.652917 5.525776 -2.007907 1.460071 5.509995 -2.001090 1.443115 -1.527417 0.475988 0.202428 -1.527415 0.475987 0.202427 0.000001 -0.000000 -0.000000 -1.527402 0.475988 0.202428 -1.527339 0.475989 0.202425 -0.000000 -0.000001 -0.000000 0.000001 -0.000000 -0.000000 0.256384 -4.260463 17.532845 -70.525064 -4.093752 -37.545082 -0.000124 -104.831362 -0.000117 -79.041066 -8.916957 -14.856356 8.253726 23.483864 9.167648 2.412672 5.263044 -0.200983 0.000000 0.000000 -0.000001 7.606500 7.261713 -82.565772 4.989919 5.787555 -81.522126 0.000002 -0.000002 0.000000 1.559647 7.302381 -76.019370 3.452979 5.338611 -65.767133 -0.000000 0.000004 -0.000000 1.313975 7.794531 -84.538563 3.114018 5.173371 -62.068169 0.000001 -0.000001 0.000001 -2.493200 10.178207 -85.864951 6.496533 5.815448 -96.344743 -0.000001 0.000000 -0.000002 0.000001 -0.000001 0.000001 0.000001 -0.000001 0.000001 0.000001 -0.000001 0.000001 -0.000001 0.000000 0.000001 -0.000001 -0.000001 0.000002 -0.000001 0.000000 0.000001 -0.000003 -0.000001 -0.000000 -4.311115 -16.380943 -8.167936 -75.846655 5.206703 53.753500 0.000980 104.624407 -0.000933 -76.793613 12.678102 22.126012 6.396769 -16.596219 -10.143357 2.803933 -6.727500 -0.689984 0.000001 -0.000002 -0.000003 3.111532 -0.689714 81.602968 3.886295 -4.593071 80.461869 0.000002 -0.000000 -0.000000 0.498738 -5.717456 70.203778 2.541274 -4.149695 62.952610 -0.000000 0.000000 0.000000 -2.066103 -5.239496 74.468186 2.014232 -3.835948 55.394350 0.000000 0.000004 -0.000001 -13.284486 -6.125487 68.253780 4.233982 -4.637940 84.780679 0.000001 0.000003 0.000002 0.000002 -0.000000 0.000003 0.000002 -0.000003 0.000001 0.000003 0.000000 0.000003 -0.000001 0.000000 -0.000003 -0.000001 0.000001 -0.000004 -0.000001 0.000000 -0.000003 -0.000001 0.000001 -0.000003 -0.000002 0.000000 0.000000 -0.000002 0.000000 0.000000 -0.000002 0.000000 0.000000 -0.000002 0.000000 0.000000 -0.000002 0.000000 0.000000 -0.000002 0.000000 0.000000 -0.000002 0.000000 0.000000 -0.000000 0.000000 -0.000000 0.000000 0.000000 0.000000 
